<?xml version="1.0" encoding="UTF-8" standalone="no"?>
<!DOCTYPE svg PUBLIC "-//W3C//DTD SVG 1.1//EN"
 "http://www.w3.org/Graphics/SVG/1.1/DTD/svg11.dtd">
<!-- Generated by graphviz version 2.40.1 (20161225.0304)
 -->
<!-- Title: %3 Pages: 1 -->
<svg width="595pt" height="104pt"
 viewBox="0.00 0.00 595.00 104.08" xmlns="http://www.w3.org/2000/svg" xmlns:xlink="http://www.w3.org/1999/xlink">
<g id="graph0" class="graph" transform="scale(.483 .483) rotate(0) translate(4 211.5)">
<title>%3</title>
<polygon fill="#ffffff" stroke="transparent" points="-4,4 -4,-211.5 1228,-211.5 1228,4 -4,4"/>
<!-- polUni0 -->
<g id="node1" class="node">
<title>polUni0</title>
<path fill="#f0ffff" stroke="#000000" d="M204,-116.5C204,-116.5 12,-116.5 12,-116.5 6,-116.5 0,-110.5 0,-104.5 0,-104.5 0,-92.5 0,-92.5 0,-86.5 6,-80.5 12,-80.5 12,-80.5 204,-80.5 204,-80.5 210,-80.5 216,-86.5 216,-92.5 216,-92.5 216,-104.5 216,-104.5 216,-110.5 210,-116.5 204,-116.5"/>
<text text-anchor="start" x="87" y="-96.3" font-family="Helvetica,sans-Serif" font-weight="bold" font-size="14.00" fill="#000000">polUni</text>
</g>
<!-- fabricInst1 -->
<g id="node2" class="node">
<title>fabricInst1</title>
<path fill="#f0ffff" stroke="#000000" d="M456,-143.5C456,-143.5 264,-143.5 264,-143.5 258,-143.5 252,-137.5 252,-131.5 252,-131.5 252,-119.5 252,-119.5 252,-113.5 258,-107.5 264,-107.5 264,-107.5 456,-107.5 456,-107.5 462,-107.5 468,-113.5 468,-119.5 468,-119.5 468,-131.5 468,-131.5 468,-137.5 462,-143.5 456,-143.5"/>
<text text-anchor="start" x="330" y="-123.3" font-family="Helvetica,sans-Serif" font-weight="bold" font-size="14.00" fill="#000000">fabricInst</text>
</g>
<!-- polUni0&#45;&gt;fabricInst1 -->
<g id="edge1" class="edge">
<title>polUni0&#45;&gt;fabricInst1</title>
<path fill="none" stroke="#000000" d="M216.3332,-110.1071C224.7707,-111.0111 233.316,-111.9267 241.8138,-112.8372"/>
<polygon fill="#000000" stroke="#000000" points="241.4423,-116.3173 251.7583,-113.9027 242.1881,-109.3572 241.4423,-116.3173"/>
</g>
<!-- infraInfra2 -->
<g id="node9" class="node">
<title>infraInfra2</title>
<path fill="#f0ffff" stroke="#000000" d="M456,-89.5C456,-89.5 264,-89.5 264,-89.5 258,-89.5 252,-83.5 252,-77.5 252,-77.5 252,-65.5 252,-65.5 252,-59.5 258,-53.5 264,-53.5 264,-53.5 456,-53.5 456,-53.5 462,-53.5 468,-59.5 468,-65.5 468,-65.5 468,-77.5 468,-77.5 468,-83.5 462,-89.5 456,-89.5"/>
<text text-anchor="start" x="331" y="-69.3" font-family="Helvetica,sans-Serif" font-weight="bold" font-size="14.00" fill="#000000">infraInfra</text>
</g>
<!-- polUni0&#45;&gt;infraInfra2 -->
<g id="edge8" class="edge">
<title>polUni0&#45;&gt;infraInfra2</title>
<path fill="none" stroke="#000000" d="M216.3332,-86.8929C224.7707,-85.9889 233.316,-85.0733 241.8138,-84.1628"/>
<polygon fill="#000000" stroke="#000000" points="242.1881,-87.6428 251.7583,-83.0973 241.4423,-80.6827 242.1881,-87.6428"/>
</g>
<!-- bgpInstPol1 -->
<g id="node3" class="node">
<title>bgpInstPol1</title>
<path fill="#f0ffff" stroke="#000000" d="M708,-157C708,-157 516,-157 516,-157 510,-157 504,-151 504,-145 504,-145 504,-106 504,-106 504,-100 510,-94 516,-94 516,-94 708,-94 708,-94 714,-94 720,-100 720,-106 720,-106 720,-145 720,-145 720,-151 714,-157 708,-157"/>
<text text-anchor="start" x="529" y="-140.3" font-family="Helvetica,sans-Serif" font-weight="bold" font-size="14.00" fill="#000000">bgpInstPol</text>
<text text-anchor="start" x="528.9897" y="-119.3" font-family="Helvetica,sans-Serif" font-size="14.00" fill="#000000">name</text>
<text text-anchor="start" x="567" y="-119.3" font-family="Helvetica,sans-Serif" font-size="14.00" fill="#000000">: default</text>
<text text-anchor="start" x="529" y="-102.3" font-family="Helvetica,sans-Serif" font-size="14.00" fill="#000000">descr</text>
<text text-anchor="start" x="566.7095" y="-102.3" font-family="Helvetica,sans-Serif" font-size="14.00" fill="#000000">: Default BGP Policy</text>
</g>
<!-- fabricInst1&#45;&gt;bgpInstPol1 -->
<g id="edge2" class="edge">
<title>fabricInst1&#45;&gt;bgpInstPol1</title>
<path fill="none" stroke="#000000" d="M468.3332,-125.5C476.679,-125.5 485.1303,-125.5 493.5367,-125.5"/>
<polygon fill="#000000" stroke="#000000" points="493.7583,-129.0001 503.7583,-125.5 493.7583,-122.0001 493.7583,-129.0001"/>
</g>
<!-- bgpAsP1 -->
<g id="node4" class="node">
<title>bgpAsP1</title>
<path fill="#f0ffff" stroke="#000000" d="M960,-207.5C960,-207.5 768,-207.5 768,-207.5 762,-207.5 756,-201.5 756,-195.5 756,-195.5 756,-173.5 756,-173.5 756,-167.5 762,-161.5 768,-161.5 768,-161.5 960,-161.5 960,-161.5 966,-161.5 972,-167.5 972,-173.5 972,-173.5 972,-195.5 972,-195.5 972,-201.5 966,-207.5 960,-207.5"/>
<text text-anchor="start" x="835" y="-191.3" font-family="Helvetica,sans-Serif" font-weight="bold" font-size="14.00" fill="#000000">bgpAsP</text>
<text text-anchor="start" x="834.7139" y="-170.3" font-family="Helvetica,sans-Serif" font-size="14.00" fill="#000000">asn</text>
<text text-anchor="start" x="859.9312" y="-170.3" font-family="Helvetica,sans-Serif" font-size="14.00" fill="#000000">: 100</text>
</g>
<!-- bgpInstPol1&#45;&gt;bgpAsP1 -->
<g id="edge3" class="edge">
<title>bgpInstPol1&#45;&gt;bgpAsP1</title>
<path fill="none" stroke="#000000" d="M720.3332,-150.8637C732.1098,-153.621 744.0966,-156.4274 755.8708,-159.184"/>
<polygon fill="#000000" stroke="#000000" points="755.1674,-162.6139 765.702,-161.4858 756.7632,-155.7982 755.1674,-162.6139"/>
</g>
<!-- bgpExtRRP2 -->
<g id="node5" class="node">
<title>bgpExtRRP2</title>
<path fill="#f0ffff" stroke="#000000" d="M960,-143.5C960,-143.5 768,-143.5 768,-143.5 762,-143.5 756,-137.5 756,-131.5 756,-131.5 756,-119.5 756,-119.5 756,-113.5 762,-107.5 768,-107.5 768,-107.5 960,-107.5 960,-107.5 966,-107.5 972,-113.5 972,-119.5 972,-119.5 972,-131.5 972,-131.5 972,-137.5 966,-143.5 960,-143.5"/>
<text text-anchor="start" x="826" y="-123.3" font-family="Helvetica,sans-Serif" font-weight="bold" font-size="14.00" fill="#000000">bgpExtRRP</text>
</g>
<!-- bgpInstPol1&#45;&gt;bgpExtRRP2 -->
<g id="edge4" class="edge">
<title>bgpInstPol1&#45;&gt;bgpExtRRP2</title>
<path fill="none" stroke="#000000" d="M720.3332,-125.5C728.679,-125.5 737.1303,-125.5 745.5367,-125.5"/>
<polygon fill="#000000" stroke="#000000" points="745.7583,-129.0001 755.7583,-125.5 745.7583,-122.0001 745.7583,-129.0001"/>
</g>
<!-- bgpRRP3 -->
<g id="node6" class="node">
<title>bgpRRP3</title>
<path fill="#f0ffff" stroke="#000000" d="M960,-89.5C960,-89.5 768,-89.5 768,-89.5 762,-89.5 756,-83.5 756,-77.5 756,-77.5 756,-65.5 756,-65.5 756,-59.5 762,-53.5 768,-53.5 768,-53.5 960,-53.5 960,-53.5 966,-53.5 972,-59.5 972,-65.5 972,-65.5 972,-77.5 972,-77.5 972,-83.5 966,-89.5 960,-89.5"/>
<text text-anchor="start" x="836" y="-69.3" font-family="Helvetica,sans-Serif" font-weight="bold" font-size="14.00" fill="#000000">bgpRRP</text>
</g>
<!-- bgpInstPol1&#45;&gt;bgpRRP3 -->
<g id="edge5" class="edge">
<title>bgpInstPol1&#45;&gt;bgpRRP3</title>
<path fill="none" stroke="#000000" d="M720.3332,-102.2858C736.7934,-98.7586 753.6641,-95.1434 769.7913,-91.6876"/>
<polygon fill="#000000" stroke="#000000" points="770.6817,-95.0763 779.7263,-89.5586 769.2149,-88.2317 770.6817,-95.0763"/>
</g>
<!-- bgpRRNodePEp1 -->
<g id="node7" class="node">
<title>bgpRRNodePEp1</title>
<path fill="#f0ffff" stroke="#000000" d="M1212,-144C1212,-144 1020,-144 1020,-144 1014,-144 1008,-138 1008,-132 1008,-132 1008,-93 1008,-93 1008,-87 1014,-81 1020,-81 1020,-81 1212,-81 1212,-81 1218,-81 1224,-87 1224,-93 1224,-93 1224,-132 1224,-132 1224,-138 1218,-144 1212,-144"/>
<text text-anchor="start" x="1063" y="-127.3" font-family="Helvetica,sans-Serif" font-weight="bold" font-size="14.00" fill="#000000">bgpRRNodePEp</text>
<text text-anchor="start" x="1063" y="-106.3" font-family="Helvetica,sans-Serif" font-size="14.00" fill="#000000">podId</text>
<text text-anchor="start" x="1115" y="-106.3" font-family="Helvetica,sans-Serif" font-size="14.00" fill="#000000">: 1</text>
<text text-anchor="start" x="1063" y="-89.3" font-family="Helvetica,sans-Serif" font-size="14.00" fill="#000000">id</text>
<text text-anchor="start" x="1115" y="-89.3" font-family="Helvetica,sans-Serif" font-size="14.00" fill="#000000">: 1101</text>
</g>
<!-- bgpRRP3&#45;&gt;bgpRRNodePEp1 -->
<g id="edge6" class="edge">
<title>bgpRRP3&#45;&gt;bgpRRNodePEp1</title>
<path fill="none" stroke="#000000" d="M972.3332,-89.1256C980.7707,-90.4984 989.316,-91.8887 997.8138,-93.2713"/>
<polygon fill="#000000" stroke="#000000" points="997.326,-96.7379 1007.7583,-94.8892 998.4502,-89.8287 997.326,-96.7379"/>
</g>
<!-- bgpRRNodePEp2 -->
<g id="node8" class="node">
<title>bgpRRNodePEp2</title>
<path fill="#f0ffff" stroke="#000000" d="M1212,-63C1212,-63 1020,-63 1020,-63 1014,-63 1008,-57 1008,-51 1008,-51 1008,-12 1008,-12 1008,-6 1014,0 1020,0 1020,0 1212,0 1212,0 1218,0 1224,-6 1224,-12 1224,-12 1224,-51 1224,-51 1224,-57 1218,-63 1212,-63"/>
<text text-anchor="start" x="1063" y="-46.3" font-family="Helvetica,sans-Serif" font-weight="bold" font-size="14.00" fill="#000000">bgpRRNodePEp</text>
<text text-anchor="start" x="1063" y="-25.3" font-family="Helvetica,sans-Serif" font-size="14.00" fill="#000000">podId</text>
<text text-anchor="start" x="1115" y="-25.3" font-family="Helvetica,sans-Serif" font-size="14.00" fill="#000000">: 1</text>
<text text-anchor="start" x="1063" y="-8.3" font-family="Helvetica,sans-Serif" font-size="14.00" fill="#000000">id</text>
<text text-anchor="start" x="1115" y="-8.3" font-family="Helvetica,sans-Serif" font-size="14.00" fill="#000000">: 1102</text>
</g>
<!-- bgpRRP3&#45;&gt;bgpRRNodePEp2 -->
<g id="edge7" class="edge">
<title>bgpRRP3&#45;&gt;bgpRRNodePEp2</title>
<path fill="none" stroke="#000000" d="M972.3332,-54.3043C980.7707,-52.965 989.316,-51.6086 997.8138,-50.2597"/>
<polygon fill="#000000" stroke="#000000" points="998.4307,-53.7057 1007.7583,-48.6812 997.3332,-46.7923 998.4307,-53.7057"/>
</g>
</g>
</svg>
