<?xml version="1.0" encoding="UTF-8" standalone="no"?>
<!DOCTYPE svg PUBLIC "-//W3C//DTD SVG 1.1//EN"
 "http://www.w3.org/Graphics/SVG/1.1/DTD/svg11.dtd">
<!-- Generated by graphviz version 2.40.1 (20161225.0304)
 -->
<!-- Title: %3 Pages: 1 -->
<svg width="595pt" height="182pt"
 viewBox="0.00 0.00 595.00 181.62" xmlns="http://www.w3.org/2000/svg" xmlns:xlink="http://www.w3.org/1999/xlink">
<g id="graph0" class="graph" transform="scale(.8428 .8428) rotate(0) translate(4 211.5)">
<title>%3</title>
<polygon fill="#ffffff" stroke="transparent" points="-4,4 -4,-211.5 702,-211.5 702,4 -4,4"/>
<!-- polUni0 -->
<g id="node1" class="node">
<title>polUni0</title>
<path fill="#f0ffff" stroke="#000000" d="M51,-116.5C51,-116.5 12,-116.5 12,-116.5 6,-116.5 0,-110.5 0,-104.5 0,-104.5 0,-92.5 0,-92.5 0,-86.5 6,-80.5 12,-80.5 12,-80.5 51,-80.5 51,-80.5 57,-80.5 63,-86.5 63,-92.5 63,-92.5 63,-104.5 63,-104.5 63,-110.5 57,-116.5 51,-116.5"/>
<text text-anchor="start" x="10.5" y="-96.3" font-family="Helvetica,sans-Serif" font-weight="bold" font-size="14.00" fill="#000000">polUni</text>
</g>
<!-- fabricInst1 -->
<g id="node2" class="node">
<title>fabricInst1</title>
<path fill="#f0ffff" stroke="#000000" d="M167,-143.5C167,-143.5 111,-143.5 111,-143.5 105,-143.5 99,-137.5 99,-131.5 99,-131.5 99,-119.5 99,-119.5 99,-113.5 105,-107.5 111,-107.5 111,-107.5 167,-107.5 167,-107.5 173,-107.5 179,-113.5 179,-119.5 179,-119.5 179,-131.5 179,-131.5 179,-137.5 173,-143.5 167,-143.5"/>
<text text-anchor="start" x="109" y="-123.3" font-family="Helvetica,sans-Serif" font-weight="bold" font-size="14.00" fill="#000000">fabricInst</text>
</g>
<!-- polUni0&#45;&gt;fabricInst1 -->
<g id="edge1" class="edge">
<title>polUni0&#45;&gt;fabricInst1</title>
<path fill="none" stroke="#000000" d="M63.1721,-106.4549C71.2718,-108.4892 80.1811,-110.7269 88.9579,-112.9313"/>
<polygon fill="#000000" stroke="#000000" points="88.2094,-116.3519 98.7607,-115.3934 89.9146,-109.5628 88.2094,-116.3519"/>
</g>
<!-- infraInfra2 -->
<g id="node9" class="node">
<title>infraInfra2</title>
<path fill="#f0ffff" stroke="#000000" d="M166.5,-89.5C166.5,-89.5 111.5,-89.5 111.5,-89.5 105.5,-89.5 99.5,-83.5 99.5,-77.5 99.5,-77.5 99.5,-65.5 99.5,-65.5 99.5,-59.5 105.5,-53.5 111.5,-53.5 111.5,-53.5 166.5,-53.5 166.5,-53.5 172.5,-53.5 178.5,-59.5 178.5,-65.5 178.5,-65.5 178.5,-77.5 178.5,-77.5 178.5,-83.5 172.5,-89.5 166.5,-89.5"/>
<text text-anchor="start" x="110" y="-69.3" font-family="Helvetica,sans-Serif" font-weight="bold" font-size="14.00" fill="#000000">infraInfra</text>
</g>
<!-- polUni0&#45;&gt;infraInfra2 -->
<g id="edge8" class="edge">
<title>polUni0&#45;&gt;infraInfra2</title>
<path fill="none" stroke="#000000" d="M63.1721,-90.5451C71.3618,-88.4882 80.3792,-86.2234 89.2504,-83.9952"/>
<polygon fill="#000000" stroke="#000000" points="90.3062,-87.3389 99.1524,-81.5082 88.601,-80.5497 90.3062,-87.3389"/>
</g>
<!-- bgpInstPol1 -->
<g id="node3" class="node">
<title>bgpInstPol1</title>
<path fill="#f0ffff" stroke="#000000" d="M390,-157C390,-157 227,-157 227,-157 221,-157 215,-151 215,-145 215,-145 215,-106 215,-106 215,-100 221,-94 227,-94 227,-94 390,-94 390,-94 396,-94 402,-100 402,-106 402,-106 402,-145 402,-145 402,-151 396,-157 390,-157"/>
<text text-anchor="start" x="225.5" y="-140.3" font-family="Helvetica,sans-Serif" font-weight="bold" font-size="14.00" fill="#000000">bgpInstPol</text>
<text text-anchor="start" x="225.4897" y="-119.3" font-family="Helvetica,sans-Serif" font-size="14.00" fill="#000000">name</text>
<text text-anchor="start" x="263.5" y="-119.3" font-family="Helvetica,sans-Serif" font-size="14.00" fill="#000000">: default</text>
<text text-anchor="start" x="225.5" y="-102.3" font-family="Helvetica,sans-Serif" font-size="14.00" fill="#000000">descr</text>
<text text-anchor="start" x="263.2095" y="-102.3" font-family="Helvetica,sans-Serif" font-size="14.00" fill="#000000">: Default BGP Policy</text>
</g>
<!-- fabricInst1&#45;&gt;bgpInstPol1 -->
<g id="edge2" class="edge">
<title>fabricInst1&#45;&gt;bgpInstPol1</title>
<path fill="none" stroke="#000000" d="M179.1691,-125.5C187.0644,-125.5 195.6813,-125.5 204.5966,-125.5"/>
<polygon fill="#000000" stroke="#000000" points="204.7665,-129.0001 214.7664,-125.5 204.7664,-122.0001 204.7665,-129.0001"/>
</g>
<!-- bgpAsP1 -->
<g id="node4" class="node">
<title>bgpAsP1</title>
<path fill="#f0ffff" stroke="#000000" d="M514,-207.5C514,-207.5 459,-207.5 459,-207.5 453,-207.5 447,-201.5 447,-195.5 447,-195.5 447,-173.5 447,-173.5 447,-167.5 453,-161.5 459,-161.5 459,-161.5 514,-161.5 514,-161.5 520,-161.5 526,-167.5 526,-173.5 526,-173.5 526,-195.5 526,-195.5 526,-201.5 520,-207.5 514,-207.5"/>
<text text-anchor="start" x="457.5" y="-191.3" font-family="Helvetica,sans-Serif" font-weight="bold" font-size="14.00" fill="#000000">bgpAsP</text>
<text text-anchor="start" x="457.2139" y="-170.3" font-family="Helvetica,sans-Serif" font-size="14.00" fill="#000000">asn</text>
<text text-anchor="start" x="482.4312" y="-170.3" font-family="Helvetica,sans-Serif" font-size="14.00" fill="#000000">: 100</text>
</g>
<!-- bgpInstPol1&#45;&gt;bgpAsP1 -->
<g id="edge3" class="edge">
<title>bgpInstPol1&#45;&gt;bgpAsP1</title>
<path fill="none" stroke="#000000" d="M402.1914,-156.555C414.2469,-160.5509 426.1872,-164.5087 437.1244,-168.1339"/>
<polygon fill="#000000" stroke="#000000" points="436.2679,-171.5372 446.8613,-171.3613 438.4704,-164.8927 436.2679,-171.5372"/>
</g>
<!-- bgpExtRRP2 -->
<g id="node5" class="node">
<title>bgpExtRRP2</title>
<path fill="#f0ffff" stroke="#000000" d="M523,-143.5C523,-143.5 450,-143.5 450,-143.5 444,-143.5 438,-137.5 438,-131.5 438,-131.5 438,-119.5 438,-119.5 438,-113.5 444,-107.5 450,-107.5 450,-107.5 523,-107.5 523,-107.5 529,-107.5 535,-113.5 535,-119.5 535,-119.5 535,-131.5 535,-131.5 535,-137.5 529,-143.5 523,-143.5"/>
<text text-anchor="start" x="448.5" y="-123.3" font-family="Helvetica,sans-Serif" font-weight="bold" font-size="14.00" fill="#000000">bgpExtRRP</text>
</g>
<!-- bgpInstPol1&#45;&gt;bgpExtRRP2 -->
<g id="edge4" class="edge">
<title>bgpInstPol1&#45;&gt;bgpExtRRP2</title>
<path fill="none" stroke="#000000" d="M402.1914,-125.5C410.7894,-125.5 419.3288,-125.5 427.4875,-125.5"/>
<polygon fill="#000000" stroke="#000000" points="427.594,-129.0001 437.594,-125.5 427.594,-122.0001 427.594,-129.0001"/>
</g>
<!-- bgpRRP3 -->
<g id="node6" class="node">
<title>bgpRRP3</title>
<path fill="#f0ffff" stroke="#000000" d="M512.5,-89.5C512.5,-89.5 460.5,-89.5 460.5,-89.5 454.5,-89.5 448.5,-83.5 448.5,-77.5 448.5,-77.5 448.5,-65.5 448.5,-65.5 448.5,-59.5 454.5,-53.5 460.5,-53.5 460.5,-53.5 512.5,-53.5 512.5,-53.5 518.5,-53.5 524.5,-59.5 524.5,-65.5 524.5,-65.5 524.5,-77.5 524.5,-77.5 524.5,-83.5 518.5,-89.5 512.5,-89.5"/>
<text text-anchor="start" x="458.5" y="-69.3" font-family="Helvetica,sans-Serif" font-weight="bold" font-size="14.00" fill="#000000">bgpRRP</text>
</g>
<!-- bgpInstPol1&#45;&gt;bgpRRP3 -->
<g id="edge5" class="edge">
<title>bgpInstPol1&#45;&gt;bgpRRP3</title>
<path fill="none" stroke="#000000" d="M402.1914,-97.0768C414.7586,-93.2643 427.2007,-89.4897 438.5116,-86.0583"/>
<polygon fill="#000000" stroke="#000000" points="439.5819,-89.3912 448.1351,-83.1388 437.5497,-82.6926 439.5819,-89.3912"/>
</g>
<!-- bgpRRNodePEp1 -->
<g id="node7" class="node">
<title>bgpRRNodePEp1</title>
<path fill="#f0ffff" stroke="#000000" d="M686,-144C686,-144 583,-144 583,-144 577,-144 571,-138 571,-132 571,-132 571,-93 571,-93 571,-87 577,-81 583,-81 583,-81 686,-81 686,-81 692,-81 698,-87 698,-93 698,-93 698,-132 698,-132 698,-138 692,-144 686,-144"/>
<text text-anchor="start" x="581.5" y="-127.3" font-family="Helvetica,sans-Serif" font-weight="bold" font-size="14.00" fill="#000000">bgpRRNodePEp</text>
<text text-anchor="start" x="581.5" y="-106.3" font-family="Helvetica,sans-Serif" font-size="14.00" fill="#000000">podId</text>
<text text-anchor="start" x="633.5" y="-106.3" font-family="Helvetica,sans-Serif" font-size="14.00" fill="#000000">: 1</text>
<text text-anchor="start" x="581.5" y="-89.3" font-family="Helvetica,sans-Serif" font-size="14.00" fill="#000000">id</text>
<text text-anchor="start" x="633.5" y="-89.3" font-family="Helvetica,sans-Serif" font-size="14.00" fill="#000000">: 1101</text>
</g>
<!-- bgpRRP3&#45;&gt;bgpRRNodePEp1 -->
<g id="edge6" class="edge">
<title>bgpRRP3&#45;&gt;bgpRRNodePEp1</title>
<path fill="none" stroke="#000000" d="M524.6137,-82.0585C535.8749,-85.1782 548.5992,-88.7032 561.2924,-92.2195"/>
<polygon fill="#000000" stroke="#000000" points="560.3966,-95.6031 570.9681,-94.8999 562.2655,-88.8572 560.3966,-95.6031"/>
</g>
<!-- bgpRRNodePEp2 -->
<g id="node8" class="node">
<title>bgpRRNodePEp2</title>
<path fill="#f0ffff" stroke="#000000" d="M686,-63C686,-63 583,-63 583,-63 577,-63 571,-57 571,-51 571,-51 571,-12 571,-12 571,-6 577,0 583,0 583,0 686,0 686,0 692,0 698,-6 698,-12 698,-12 698,-51 698,-51 698,-57 692,-63 686,-63"/>
<text text-anchor="start" x="581.5" y="-46.3" font-family="Helvetica,sans-Serif" font-weight="bold" font-size="14.00" fill="#000000">bgpRRNodePEp</text>
<text text-anchor="start" x="581.5" y="-25.3" font-family="Helvetica,sans-Serif" font-size="14.00" fill="#000000">podId</text>
<text text-anchor="start" x="633.5" y="-25.3" font-family="Helvetica,sans-Serif" font-size="14.00" fill="#000000">: 1</text>
<text text-anchor="start" x="581.5" y="-8.3" font-family="Helvetica,sans-Serif" font-size="14.00" fill="#000000">id</text>
<text text-anchor="start" x="633.5" y="-8.3" font-family="Helvetica,sans-Serif" font-size="14.00" fill="#000000">: 1102</text>
</g>
<!-- bgpRRP3&#45;&gt;bgpRRNodePEp2 -->
<g id="edge7" class="edge">
<title>bgpRRP3&#45;&gt;bgpRRNodePEp2</title>
<path fill="none" stroke="#000000" d="M524.6137,-61.199C535.8749,-58.1554 548.5992,-54.7164 561.2924,-51.2858"/>
<polygon fill="#000000" stroke="#000000" points="562.2277,-54.6587 570.9681,-48.6708 560.4012,-47.9012 562.2277,-54.6587"/>
</g>
</g>
</svg>
