<?xml version="1.0" encoding="UTF-8" standalone="no"?>
<!DOCTYPE svg PUBLIC "-//W3C//DTD SVG 1.1//EN"
 "http://www.w3.org/Graphics/SVG/1.1/DTD/svg11.dtd">
<!-- Generated by graphviz version 2.40.1 (20161225.0304)
 -->
<!-- Title: Policy Pages: 1 -->
<svg width="396pt" height="396pt"
 viewBox="0.00 0.00 396.00 396.00" xmlns="http://www.w3.org/2000/svg" xmlns:xlink="http://www.w3.org/1999/xlink">
<g id="graph0" class="graph" transform="scale(1 1) rotate(0) translate(4 392)">
<title>Policy</title>
<!-- polUni0 -->
<g id="node1" class="node">
<title>polUni0</title>
<path fill="#f0ffff" stroke="#000000" d="M212.0203,-388C212.0203,-388 173.0203,-388 173.0203,-388 167.0203,-388 161.0203,-382 161.0203,-376 161.0203,-376 161.0203,-364 161.0203,-364 161.0203,-358 167.0203,-352 173.0203,-352 173.0203,-352 212.0203,-352 212.0203,-352 218.0203,-352 224.0203,-358 224.0203,-364 224.0203,-364 224.0203,-376 224.0203,-376 224.0203,-382 218.0203,-388 212.0203,-388"/>
<text text-anchor="start" x="171.5203" y="-367.8" font-family="Helvetica,sans-Serif" font-weight="bold" font-size="14.00" fill="#000000">polUni</text>
</g>
<!-- fabricInst1 -->
<g id="node2" class="node">
<title>fabricInst1</title>
<path fill="#f0ffff" stroke="#000000" d="M173.5203,-316C173.5203,-316 117.5203,-316 117.5203,-316 111.5203,-316 105.5203,-310 105.5203,-304 105.5203,-304 105.5203,-292 105.5203,-292 105.5203,-286 111.5203,-280 117.5203,-280 117.5203,-280 173.5203,-280 173.5203,-280 179.5203,-280 185.5203,-286 185.5203,-292 185.5203,-292 185.5203,-304 185.5203,-304 185.5203,-310 179.5203,-316 173.5203,-316"/>
<text text-anchor="start" x="115.5203" y="-295.8" font-family="Helvetica,sans-Serif" font-weight="bold" font-size="14.00" fill="#000000">fabricInst</text>
</g>
<!-- polUni0&#45;&gt;fabricInst1 -->
<g id="edge1" class="edge">
<title>polUni0&#45;&gt;fabricInst1</title>
<path fill="none" stroke="#000000" d="M180.6602,-351.8314C175.3574,-343.7079 168.9966,-333.9637 163.153,-325.0118"/>
<polygon fill="#000000" stroke="#000000" points="165.9372,-322.8739 157.5401,-316.4133 160.0755,-326.7003 165.9372,-322.8739"/>
</g>
<!-- infraInfra2 -->
<g id="node9" class="node">
<title>infraInfra2</title>
<path fill="#f0ffff" stroke="#000000" d="M269.0203,-316C269.0203,-316 214.0203,-316 214.0203,-316 208.0203,-316 202.0203,-310 202.0203,-304 202.0203,-304 202.0203,-292 202.0203,-292 202.0203,-286 208.0203,-280 214.0203,-280 214.0203,-280 269.0203,-280 269.0203,-280 275.0203,-280 281.0203,-286 281.0203,-292 281.0203,-292 281.0203,-304 281.0203,-304 281.0203,-310 275.0203,-316 269.0203,-316"/>
<text text-anchor="start" x="212.5203" y="-295.8" font-family="Helvetica,sans-Serif" font-weight="bold" font-size="14.00" fill="#000000">infraInfra</text>
</g>
<!-- polUni0&#45;&gt;infraInfra2 -->
<g id="edge8" class="edge">
<title>polUni0&#45;&gt;infraInfra2</title>
<path fill="none" stroke="#000000" d="M204.8851,-351.8314C210.4712,-343.6232 217.1833,-333.7606 223.3275,-324.7323"/>
<polygon fill="#000000" stroke="#000000" points="226.2563,-326.6496 228.9891,-316.4133 220.4693,-322.7112 226.2563,-326.6496"/>
</g>
<!-- bgpInstPol1 -->
<g id="node3" class="node">
<title>bgpInstPol1</title>
<path fill="#f0ffff" stroke="#000000" d="M227.0203,-244.5C227.0203,-244.5 64.0203,-244.5 64.0203,-244.5 58.0203,-244.5 52.0203,-238.5 52.0203,-232.5 52.0203,-232.5 52.0203,-193.5 52.0203,-193.5 52.0203,-187.5 58.0203,-181.5 64.0203,-181.5 64.0203,-181.5 227.0203,-181.5 227.0203,-181.5 233.0203,-181.5 239.0203,-187.5 239.0203,-193.5 239.0203,-193.5 239.0203,-232.5 239.0203,-232.5 239.0203,-238.5 233.0203,-244.5 227.0203,-244.5"/>
<text text-anchor="start" x="62.5203" y="-227.8" font-family="Helvetica,sans-Serif" font-weight="bold" font-size="14.00" fill="#000000">bgpInstPol</text>
<text text-anchor="start" x="62.5101" y="-206.8" font-family="Helvetica,sans-Serif" font-size="14.00" fill="#000000">name</text>
<text text-anchor="start" x="100.5203" y="-206.8" font-family="Helvetica,sans-Serif" font-size="14.00" fill="#000000">: default</text>
<text text-anchor="start" x="62.5203" y="-189.8" font-family="Helvetica,sans-Serif" font-size="14.00" fill="#000000">descr</text>
<text text-anchor="start" x="100.2298" y="-189.8" font-family="Helvetica,sans-Serif" font-size="14.00" fill="#000000">: Default BGP Policy</text>
</g>
<!-- fabricInst1&#45;&gt;bgpInstPol1 -->
<g id="edge2" class="edge">
<title>fabricInst1&#45;&gt;bgpInstPol1</title>
<path fill="none" stroke="#000000" d="M145.5203,-279.9737C145.5203,-272.6181 145.5203,-263.7789 145.5203,-254.9701"/>
<polygon fill="#000000" stroke="#000000" points="149.0204,-254.7339 145.5203,-244.734 142.0204,-254.734 149.0204,-254.7339"/>
</g>
<!-- bgpAsP1 -->
<g id="node4" class="node">
<title>bgpAsP1</title>
<path fill="#f0ffff" stroke="#000000" d="M69.0203,-145C69.0203,-145 14.0203,-145 14.0203,-145 8.0203,-145 2.0203,-139 2.0203,-133 2.0203,-133 2.0203,-111 2.0203,-111 2.0203,-105 8.0203,-99 14.0203,-99 14.0203,-99 69.0203,-99 69.0203,-99 75.0203,-99 81.0203,-105 81.0203,-111 81.0203,-111 81.0203,-133 81.0203,-133 81.0203,-139 75.0203,-145 69.0203,-145"/>
<text text-anchor="start" x="12.5203" y="-128.8" font-family="Helvetica,sans-Serif" font-weight="bold" font-size="14.00" fill="#000000">bgpAsP</text>
<text text-anchor="start" x="12.2342" y="-107.8" font-family="Helvetica,sans-Serif" font-size="14.00" fill="#000000">asn</text>
<text text-anchor="start" x="37.4515" y="-107.8" font-family="Helvetica,sans-Serif" font-size="14.00" fill="#000000">: 100</text>
</g>
<!-- bgpInstPol1&#45;&gt;bgpAsP1 -->
<g id="edge3" class="edge">
<title>bgpInstPol1&#45;&gt;bgpAsP1</title>
<path fill="none" stroke="#000000" d="M109.438,-181.428C98.4856,-171.8446 86.4905,-161.3489 75.6692,-151.8803"/>
<polygon fill="#000000" stroke="#000000" points="77.8594,-149.146 68.0288,-145.1949 73.2498,-154.414 77.8594,-149.146"/>
</g>
<!-- bgpExtRRP2 -->
<g id="node5" class="node">
<title>bgpExtRRP2</title>
<path fill="#f0ffff" stroke="#000000" d="M182.0203,-140C182.0203,-140 109.0203,-140 109.0203,-140 103.0203,-140 97.0203,-134 97.0203,-128 97.0203,-128 97.0203,-116 97.0203,-116 97.0203,-110 103.0203,-104 109.0203,-104 109.0203,-104 182.0203,-104 182.0203,-104 188.0203,-104 194.0203,-110 194.0203,-116 194.0203,-116 194.0203,-128 194.0203,-128 194.0203,-134 188.0203,-140 182.0203,-140"/>
<text text-anchor="start" x="107.5203" y="-119.8" font-family="Helvetica,sans-Serif" font-weight="bold" font-size="14.00" fill="#000000">bgpExtRRP</text>
</g>
<!-- bgpInstPol1&#45;&gt;bgpExtRRP2 -->
<g id="edge4" class="edge">
<title>bgpInstPol1&#45;&gt;bgpExtRRP2</title>
<path fill="none" stroke="#000000" d="M145.5203,-181.428C145.5203,-171.3248 145.5203,-160.2077 145.5203,-150.3491"/>
<polygon fill="#000000" stroke="#000000" points="149.0204,-150.2528 145.5203,-140.2528 142.0204,-150.2528 149.0204,-150.2528"/>
</g>
<!-- bgpRRP3 -->
<g id="node6" class="node">
<title>bgpRRP3</title>
<path fill="#f0ffff" stroke="#000000" d="M274.5203,-140C274.5203,-140 222.5203,-140 222.5203,-140 216.5203,-140 210.5203,-134 210.5203,-128 210.5203,-128 210.5203,-116 210.5203,-116 210.5203,-110 216.5203,-104 222.5203,-104 222.5203,-104 274.5203,-104 274.5203,-104 280.5203,-104 286.5203,-110 286.5203,-116 286.5203,-116 286.5203,-128 286.5203,-128 286.5203,-134 280.5203,-140 274.5203,-140"/>
<text text-anchor="start" x="220.5203" y="-119.8" font-family="Helvetica,sans-Serif" font-weight="bold" font-size="14.00" fill="#000000">bgpRRP</text>
</g>
<!-- bgpInstPol1&#45;&gt;bgpRRP3 -->
<g id="edge5" class="edge">
<title>bgpInstPol1&#45;&gt;bgpRRP3</title>
<path fill="none" stroke="#000000" d="M181.2557,-181.428C194.0293,-170.1426 208.2349,-157.592 220.2877,-146.9434"/>
<polygon fill="#000000" stroke="#000000" points="222.6838,-149.4968 227.8606,-140.2528 218.049,-144.2509 222.6838,-149.4968"/>
</g>
<!-- bgpRRNodePEp1 -->
<g id="node7" class="node">
<title>bgpRRNodePEp1</title>
<path fill="#f0ffff" stroke="#000000" d="M228.0203,-63.5C228.0203,-63.5 125.0203,-63.5 125.0203,-63.5 119.0203,-63.5 113.0203,-57.5 113.0203,-51.5 113.0203,-51.5 113.0203,-12.5 113.0203,-12.5 113.0203,-6.5 119.0203,-.5 125.0203,-.5 125.0203,-.5 228.0203,-.5 228.0203,-.5 234.0203,-.5 240.0203,-6.5 240.0203,-12.5 240.0203,-12.5 240.0203,-51.5 240.0203,-51.5 240.0203,-57.5 234.0203,-63.5 228.0203,-63.5"/>
<text text-anchor="start" x="123.5203" y="-46.8" font-family="Helvetica,sans-Serif" font-weight="bold" font-size="14.00" fill="#000000">bgpRRNodePEp</text>
<text text-anchor="start" x="123.5203" y="-25.8" font-family="Helvetica,sans-Serif" font-size="14.00" fill="#000000">podId</text>
<text text-anchor="start" x="175.5203" y="-25.8" font-family="Helvetica,sans-Serif" font-size="14.00" fill="#000000">: 1</text>
<text text-anchor="start" x="123.5203" y="-8.8" font-family="Helvetica,sans-Serif" font-size="14.00" fill="#000000">id</text>
<text text-anchor="start" x="175.5203" y="-8.8" font-family="Helvetica,sans-Serif" font-size="14.00" fill="#000000">: 1101</text>
</g>
<!-- bgpRRP3&#45;&gt;bgpRRNodePEp1 -->
<g id="edge6" class="edge">
<title>bgpRRP3&#45;&gt;bgpRRNodePEp1</title>
<path fill="none" stroke="#000000" d="M233.9501,-103.7872C226.5434,-94.5288 217.2339,-82.892 208.2794,-71.6989"/>
<polygon fill="#000000" stroke="#000000" points="210.8342,-69.2896 201.8542,-63.6673 205.3681,-73.6625 210.8342,-69.2896"/>
</g>
<!-- bgpRRNodePEp2 -->
<g id="node8" class="node">
<title>bgpRRNodePEp2</title>
<path fill="#f0ffff" stroke="#000000" d="M373.0203,-63.5C373.0203,-63.5 270.0203,-63.5 270.0203,-63.5 264.0203,-63.5 258.0203,-57.5 258.0203,-51.5 258.0203,-51.5 258.0203,-12.5 258.0203,-12.5 258.0203,-6.5 264.0203,-.5 270.0203,-.5 270.0203,-.5 373.0203,-.5 373.0203,-.5 379.0203,-.5 385.0203,-6.5 385.0203,-12.5 385.0203,-12.5 385.0203,-51.5 385.0203,-51.5 385.0203,-57.5 379.0203,-63.5 373.0203,-63.5"/>
<text text-anchor="start" x="268.5203" y="-46.8" font-family="Helvetica,sans-Serif" font-weight="bold" font-size="14.00" fill="#000000">bgpRRNodePEp</text>
<text text-anchor="start" x="268.5203" y="-25.8" font-family="Helvetica,sans-Serif" font-size="14.00" fill="#000000">podId</text>
<text text-anchor="start" x="320.5203" y="-25.8" font-family="Helvetica,sans-Serif" font-size="14.00" fill="#000000">: 1</text>
<text text-anchor="start" x="268.5203" y="-8.8" font-family="Helvetica,sans-Serif" font-size="14.00" fill="#000000">id</text>
<text text-anchor="start" x="320.5203" y="-8.8" font-family="Helvetica,sans-Serif" font-size="14.00" fill="#000000">: 1102</text>
</g>
<!-- bgpRRP3&#45;&gt;bgpRRNodePEp2 -->
<g id="edge7" class="edge">
<title>bgpRRP3&#45;&gt;bgpRRNodePEp2</title>
<path fill="none" stroke="#000000" d="M263.293,-103.7872C270.8025,-94.5288 280.2412,-82.892 289.3201,-71.6989"/>
<polygon fill="#000000" stroke="#000000" points="292.2534,-73.6386 295.8346,-63.6673 286.8169,-69.229 292.2534,-73.6386"/>
</g>
</g>
</svg>
