<?xml version="1.0" encoding="UTF-8" standalone="no"?>
<!DOCTYPE svg PUBLIC "-//W3C//DTD SVG 1.1//EN"
 "http://www.w3.org/Graphics/SVG/1.1/DTD/svg11.dtd">
<!-- Generated by graphviz version 2.40.1 (20161225.0304)
 -->
<!-- Title: %3 Pages: 1 -->
<svg width="2575pt" height="856pt"
 viewBox="0.00 0.00 618.00 205.50" xmlns="http://www.w3.org/2000/svg" xmlns:xlink="http://www.w3.org/1999/xlink">
<g id="graph0" class="graph" transform="scale(4.1667 4.1667) rotate(0) translate(4 201.5)">
<title>%3</title>
<polygon fill="#ffffff" stroke="transparent" points="-4,4 -4,-201.5 614,-201.5 614,4 -4,4"/>
<!-- polUni0 -->
<g id="node1" class="node">
<title>polUni0</title>
<path fill="#f0ffff" stroke="#000000" d="M51,-112.5C51,-112.5 12,-112.5 12,-112.5 6,-112.5 0,-106.5 0,-100.5 0,-100.5 0,-88.5 0,-88.5 0,-82.5 6,-76.5 12,-76.5 12,-76.5 51,-76.5 51,-76.5 57,-76.5 63,-82.5 63,-88.5 63,-88.5 63,-100.5 63,-100.5 63,-106.5 57,-112.5 51,-112.5"/>
<text text-anchor="start" x="10.5" y="-92.3" font-family="Helvetica,sans-Serif" font-weight="bold" font-size="14.00" fill="#000000">polUni</text>
</g>
<!-- fabricInst1 -->
<g id="node2" class="node">
<title>fabricInst1</title>
<path fill="#f0ffff" stroke="#000000" d="M145,-137.5C145,-137.5 89,-137.5 89,-137.5 83,-137.5 77,-131.5 77,-125.5 77,-125.5 77,-113.5 77,-113.5 77,-107.5 83,-101.5 89,-101.5 89,-101.5 145,-101.5 145,-101.5 151,-101.5 157,-107.5 157,-113.5 157,-113.5 157,-125.5 157,-125.5 157,-131.5 151,-137.5 145,-137.5"/>
<text text-anchor="start" x="87" y="-117.3" font-family="Helvetica,sans-Serif" font-weight="bold" font-size="14.00" fill="#000000">fabricInst</text>
</g>
<!-- polUni0&#45;&gt;fabricInst1 -->
<g id="edge1" class="edge">
<title>polUni0&#45;&gt;fabricInst1</title>
<path fill="none" stroke="#000000" d="M63.337,-103.8091C64.5655,-104.1683 65.8069,-104.5313 67.0568,-104.8967"/>
<polygon fill="#000000" stroke="#000000" points="66.1498,-108.278 76.7302,-107.7252 68.1143,-101.5593 66.1498,-108.278"/>
</g>
<!-- infraInfra2 -->
<g id="node9" class="node">
<title>infraInfra2</title>
<path fill="#f0ffff" stroke="#000000" d="M144.5,-87.5C144.5,-87.5 89.5,-87.5 89.5,-87.5 83.5,-87.5 77.5,-81.5 77.5,-75.5 77.5,-75.5 77.5,-63.5 77.5,-63.5 77.5,-57.5 83.5,-51.5 89.5,-51.5 89.5,-51.5 144.5,-51.5 144.5,-51.5 150.5,-51.5 156.5,-57.5 156.5,-63.5 156.5,-63.5 156.5,-75.5 156.5,-75.5 156.5,-81.5 150.5,-87.5 144.5,-87.5"/>
<text text-anchor="start" x="88" y="-67.3" font-family="Helvetica,sans-Serif" font-weight="bold" font-size="14.00" fill="#000000">infraInfra</text>
</g>
<!-- polUni0&#45;&gt;infraInfra2 -->
<g id="edge8" class="edge">
<title>polUni0&#45;&gt;infraInfra2</title>
<path fill="none" stroke="#000000" d="M63.337,-85.1909C64.7614,-84.7744 66.2031,-84.3529 67.6551,-83.9283"/>
<polygon fill="#000000" stroke="#000000" points="68.7003,-87.2693 77.3161,-81.1035 66.7357,-80.5507 68.7003,-87.2693"/>
</g>
<!-- bgpInstPol1 -->
<g id="node3" class="node">
<title>bgpInstPol1</title>
<path fill="#f0ffff" stroke="#000000" d="M346,-151C346,-151 183,-151 183,-151 177,-151 171,-145 171,-139 171,-139 171,-100 171,-100 171,-94 177,-88 183,-88 183,-88 346,-88 346,-88 352,-88 358,-94 358,-100 358,-100 358,-139 358,-139 358,-145 352,-151 346,-151"/>
<text text-anchor="start" x="181.5" y="-134.3" font-family="Helvetica,sans-Serif" font-weight="bold" font-size="14.00" fill="#000000">bgpInstPol</text>
<text text-anchor="start" x="181.4897" y="-113.3" font-family="Helvetica,sans-Serif" font-size="14.00" fill="#000000">name</text>
<text text-anchor="start" x="219.5" y="-113.3" font-family="Helvetica,sans-Serif" font-size="14.00" fill="#000000">: default</text>
<text text-anchor="start" x="181.5" y="-96.3" font-family="Helvetica,sans-Serif" font-size="14.00" fill="#000000">descr</text>
<text text-anchor="start" x="219.2095" y="-96.3" font-family="Helvetica,sans-Serif" font-size="14.00" fill="#000000">: Default BGP Policy</text>
</g>
<!-- fabricInst1&#45;&gt;bgpInstPol1 -->
<g id="edge2" class="edge">
<title>fabricInst1&#45;&gt;bgpInstPol1</title>
<path fill="none" stroke="#000000" d="M157.305,-119.5C158.3926,-119.5 159.4924,-119.5 160.6033,-119.5"/>
<polygon fill="#000000" stroke="#000000" points="160.864,-123.0001 170.8639,-119.5 160.8639,-116.0001 160.864,-123.0001"/>
</g>
<!-- bgpAsP1 -->
<g id="node4" class="node">
<title>bgpAsP1</title>
<path fill="#f0ffff" stroke="#000000" d="M448,-197.5C448,-197.5 393,-197.5 393,-197.5 387,-197.5 381,-191.5 381,-185.5 381,-185.5 381,-163.5 381,-163.5 381,-157.5 387,-151.5 393,-151.5 393,-151.5 448,-151.5 448,-151.5 454,-151.5 460,-157.5 460,-163.5 460,-163.5 460,-185.5 460,-185.5 460,-191.5 454,-197.5 448,-197.5"/>
<text text-anchor="start" x="391.5" y="-181.3" font-family="Helvetica,sans-Serif" font-weight="bold" font-size="14.00" fill="#000000">bgpAsP</text>
<text text-anchor="start" x="391.2139" y="-160.3" font-family="Helvetica,sans-Serif" font-size="14.00" fill="#000000">asn</text>
<text text-anchor="start" x="416.4312" y="-160.3" font-family="Helvetica,sans-Serif" font-size="14.00" fill="#000000">: 100</text>
</g>
<!-- bgpInstPol1&#45;&gt;bgpAsP1 -->
<g id="edge3" class="edge">
<title>bgpInstPol1&#45;&gt;bgpAsP1</title>
<path fill="none" stroke="#000000" d="M353.8895,-151.0155C359.7612,-153.0857 365.5449,-155.1248 371.1036,-157.0846"/>
<polygon fill="#000000" stroke="#000000" points="370.2419,-160.4919 380.8367,-160.5162 372.5695,-153.8902 370.2419,-160.4919"/>
</g>
<!-- bgpExtRRP2 -->
<g id="node5" class="node">
<title>bgpExtRRP2</title>
<path fill="#f0ffff" stroke="#000000" d="M457,-137.5C457,-137.5 384,-137.5 384,-137.5 378,-137.5 372,-131.5 372,-125.5 372,-125.5 372,-113.5 372,-113.5 372,-107.5 378,-101.5 384,-101.5 384,-101.5 457,-101.5 457,-101.5 463,-101.5 469,-107.5 469,-113.5 469,-113.5 469,-125.5 469,-125.5 469,-131.5 463,-137.5 457,-137.5"/>
<text text-anchor="start" x="382.5" y="-117.3" font-family="Helvetica,sans-Serif" font-weight="bold" font-size="14.00" fill="#000000">bgpExtRRP</text>
</g>
<!-- bgpInstPol1&#45;&gt;bgpExtRRP2 -->
<g id="edge4" class="edge">
<title>bgpInstPol1&#45;&gt;bgpExtRRP2</title>
<path fill="none" stroke="#000000" d="M358.3964,-119.5C359.3845,-119.5 360.3691,-119.5 361.3494,-119.5"/>
<polygon fill="#000000" stroke="#000000" points="361.6605,-123.0001 371.6605,-119.5 361.6604,-116.0001 361.6605,-123.0001"/>
</g>
<!-- bgpRRP3 -->
<g id="node6" class="node">
<title>bgpRRP3</title>
<path fill="#f0ffff" stroke="#000000" d="M446.5,-87.5C446.5,-87.5 394.5,-87.5 394.5,-87.5 388.5,-87.5 382.5,-81.5 382.5,-75.5 382.5,-75.5 382.5,-63.5 382.5,-63.5 382.5,-57.5 388.5,-51.5 394.5,-51.5 394.5,-51.5 446.5,-51.5 446.5,-51.5 452.5,-51.5 458.5,-57.5 458.5,-63.5 458.5,-63.5 458.5,-75.5 458.5,-75.5 458.5,-81.5 452.5,-87.5 446.5,-87.5"/>
<text text-anchor="start" x="392.5" y="-67.3" font-family="Helvetica,sans-Serif" font-weight="bold" font-size="14.00" fill="#000000">bgpRRP</text>
</g>
<!-- bgpInstPol1&#45;&gt;bgpRRP3 -->
<g id="edge5" class="edge">
<title>bgpInstPol1&#45;&gt;bgpRRP3</title>
<path fill="none" stroke="#000000" d="M358.3964,-89.405C363.2462,-87.8506 368.0103,-86.3236 372.6094,-84.8496"/>
<polygon fill="#000000" stroke="#000000" points="373.9288,-88.1021 382.3833,-81.7169 371.7922,-81.4361 373.9288,-88.1021"/>
</g>
<!-- bgpRRNodePEp1 -->
<g id="node7" class="node">
<title>bgpRRNodePEp1</title>
<path fill="#f0ffff" stroke="#000000" d="M598,-140C598,-140 495,-140 495,-140 489,-140 483,-134 483,-128 483,-128 483,-89 483,-89 483,-83 489,-77 495,-77 495,-77 598,-77 598,-77 604,-77 610,-83 610,-89 610,-89 610,-128 610,-128 610,-134 604,-140 598,-140"/>
<text text-anchor="start" x="493.5" y="-123.3" font-family="Helvetica,sans-Serif" font-weight="bold" font-size="14.00" fill="#000000">bgpRRNodePEp</text>
<text text-anchor="start" x="493.5" y="-102.3" font-family="Helvetica,sans-Serif" font-size="14.00" fill="#000000">podId</text>
<text text-anchor="start" x="545.5" y="-102.3" font-family="Helvetica,sans-Serif" font-size="14.00" fill="#000000">: 1</text>
<text text-anchor="start" x="493.5" y="-85.3" font-family="Helvetica,sans-Serif" font-size="14.00" fill="#000000">id</text>
<text text-anchor="start" x="545.5" y="-85.3" font-family="Helvetica,sans-Serif" font-size="14.00" fill="#000000">: 1101</text>
</g>
<!-- bgpRRP3&#45;&gt;bgpRRNodePEp1 -->
<g id="edge6" class="edge">
<title>bgpRRP3&#45;&gt;bgpRRNodePEp1</title>
<path fill="none" stroke="#000000" d="M458.6461,-81.3071C463.3247,-82.7553 468.2212,-84.2708 473.206,-85.8138"/>
<polygon fill="#000000" stroke="#000000" points="472.2792,-89.1907 482.867,-88.8041 474.349,-82.5037 472.2792,-89.1907"/>
</g>
<!-- bgpRRNodePEp2 -->
<g id="node8" class="node">
<title>bgpRRNodePEp2</title>
<path fill="#f0ffff" stroke="#000000" d="M598,-63C598,-63 495,-63 495,-63 489,-63 483,-57 483,-51 483,-51 483,-12 483,-12 483,-6 489,0 495,0 495,0 598,0 598,0 604,0 610,-6 610,-12 610,-12 610,-51 610,-51 610,-57 604,-63 598,-63"/>
<text text-anchor="start" x="493.5" y="-46.3" font-family="Helvetica,sans-Serif" font-weight="bold" font-size="14.00" fill="#000000">bgpRRNodePEp</text>
<text text-anchor="start" x="493.5" y="-25.3" font-family="Helvetica,sans-Serif" font-size="14.00" fill="#000000">podId</text>
<text text-anchor="start" x="545.5" y="-25.3" font-family="Helvetica,sans-Serif" font-size="14.00" fill="#000000">: 1</text>
<text text-anchor="start" x="493.5" y="-8.3" font-family="Helvetica,sans-Serif" font-size="14.00" fill="#000000">id</text>
<text text-anchor="start" x="545.5" y="-8.3" font-family="Helvetica,sans-Serif" font-size="14.00" fill="#000000">: 1102</text>
</g>
<!-- bgpRRP3&#45;&gt;bgpRRNodePEp2 -->
<g id="edge7" class="edge">
<title>bgpRRP3&#45;&gt;bgpRRNodePEp2</title>
<path fill="none" stroke="#000000" d="M458.6461,-57.9956C463.3247,-56.5846 468.2212,-55.1079 473.206,-53.6045"/>
<polygon fill="#000000" stroke="#000000" points="474.3035,-56.9293 482.867,-50.6909 472.2823,-50.2275 474.3035,-56.9293"/>
</g>
</g>
</svg>
