<?xml version="1.0" encoding="UTF-8" standalone="no"?>
<!DOCTYPE svg PUBLIC "-//W3C//DTD SVG 1.1//EN"
 "http://www.w3.org/Graphics/SVG/1.1/DTD/svg11.dtd">
<!-- Generated by graphviz version 2.40.1 (20161225.0304)
 -->
<!-- Title: %3 Pages: 1 -->
<svg width="1317pt" height="392pt"
 viewBox="0.00 0.00 316.00 94.00" xmlns="http://www.w3.org/2000/svg" xmlns:xlink="http://www.w3.org/1999/xlink">
<g id="graph0" class="graph" transform="scale(4.1667 4.1667) rotate(0) translate(4 90)">
<title>%3</title>
<polygon fill="#ffffff" stroke="transparent" points="-4,4 -4,-90 312,-90 312,4 -4,4"/>
<!-- bgpInstPol0 -->
<g id="node1" class="node">
<title>bgpInstPol0</title>
<path fill="#f0ffff" stroke="#000000" d="M185,-74.5C185,-74.5 12,-74.5 12,-74.5 6,-74.5 0,-68.5 0,-62.5 0,-62.5 0,-23.5 0,-23.5 0,-17.5 6,-11.5 12,-11.5 12,-11.5 185,-11.5 185,-11.5 191,-11.5 197,-17.5 197,-23.5 197,-23.5 197,-62.5 197,-62.5 197,-68.5 191,-74.5 185,-74.5"/>
<text text-anchor="start" x="10.5" y="-57.8" font-family="Helvetica,sans-Serif" font-weight="bold" font-size="14.00" fill="#000000">bgpInstPol</text>
<text text-anchor="start" x="10.5" y="-36.8" font-family="Helvetica,sans-Serif" font-size="14.00" fill="#000000">dn</text>
<text text-anchor="start" x="48.4106" y="-36.8" font-family="Helvetica,sans-Serif" font-size="14.00" fill="#000000">: uni/fabric/bgpInstP&#45;..</text>
<text text-anchor="start" x="10.4897" y="-19.8" font-family="Helvetica,sans-Serif" font-size="14.00" fill="#000000">name</text>
<text text-anchor="start" x="48.5" y="-19.8" font-family="Helvetica,sans-Serif" font-size="14.00" fill="#000000">: default</text>
</g>
<!-- bgpRRP1 -->
<g id="node2" class="node">
<title>bgpRRP1</title>
<path fill="#f0ffff" stroke="#000000" d="M285.5,-86C285.5,-86 233.5,-86 233.5,-86 227.5,-86 221.5,-80 221.5,-74 221.5,-74 221.5,-62 221.5,-62 221.5,-56 227.5,-50 233.5,-50 233.5,-50 285.5,-50 285.5,-50 291.5,-50 297.5,-56 297.5,-62 297.5,-62 297.5,-74 297.5,-74 297.5,-80 291.5,-86 285.5,-86"/>
<text text-anchor="start" x="231.5" y="-65.8" font-family="Helvetica,sans-Serif" font-weight="bold" font-size="14.00" fill="#000000">bgpRRP</text>
</g>
<!-- bgpInstPol0&#45;&gt;bgpRRP1 -->
<g id="edge1" class="edge">
<title>bgpInstPol0&#45;&gt;bgpRRP1</title>
<path fill="none" stroke="#000000" d="M197.2532,-58.3343C202.0129,-59.0734 206.6828,-59.7986 211.1914,-60.4987"/>
<polygon fill="#000000" stroke="#000000" points="210.9664,-64.0056 221.3851,-62.0815 212.0406,-57.0885 210.9664,-64.0056"/>
</g>
<!-- bgpExtRRP2 -->
<g id="node3" class="node">
<title>bgpExtRRP2</title>
<path fill="#f0ffff" stroke="#000000" d="M296,-36C296,-36 223,-36 223,-36 217,-36 211,-30 211,-24 211,-24 211,-12 211,-12 211,-6 217,0 223,0 223,0 296,0 296,0 302,0 308,-6 308,-12 308,-12 308,-24 308,-24 308,-30 302,-36 296,-36"/>
<text text-anchor="start" x="221.5" y="-15.8" font-family="Helvetica,sans-Serif" font-weight="bold" font-size="14.00" fill="#000000">bgpExtRRP</text>
</g>
<!-- bgpInstPol0&#45;&gt;bgpExtRRP2 -->
<g id="edge2" class="edge">
<title>bgpInstPol0&#45;&gt;bgpExtRRP2</title>
<path fill="none" stroke="#000000" d="M197.2532,-27.6657C198.4248,-27.4837 199.591,-27.3026 200.7507,-27.1226"/>
<polygon fill="#000000" stroke="#000000" points="201.6387,-30.5267 210.9832,-25.5337 200.5645,-23.6096 201.6387,-30.5267"/>
</g>
</g>
</svg>
